<mxfile host="app.diagrams.net" agent="Mozilla/5.0 (Windows NT 10.0; Win64; x64) AppleWebKit/537.36 (KHTML, like Gecko) Chrome/134.0.0.0 Safari/537.36 Edg/134.0.0.0" version="26.1.3">
  <diagram name="Page-1" id="e3a06f82-3646-2815-327d-82caf3d4e204">
    <mxGraphModel dx="2852" dy="1578" grid="0" gridSize="10" guides="1" tooltips="1" connect="1" arrows="1" fold="1" page="1" pageScale="1.5" pageWidth="827" pageHeight="1169" background="none" math="0" shadow="0">
      <root>
        <mxCell id="0" style=";html=1;" />
        <mxCell id="1" style=";html=1;" parent="0" />
        <mxCell id="6a7d8f32e03d9370-60" value="&lt;font style=&quot;font-size: 24px;&quot;&gt;DataEnv Cloud&lt;/font&gt;" style="whiteSpace=wrap;html=1;fillColor=#dae8fc;fontSize=14;strokeColor=#6c8ebf;verticalAlign=top;gradientColor=#003366;" parent="1" vertex="1">
          <mxGeometry x="508" y="348" width="692" height="456" as="geometry" />
        </mxCell>
        <mxCell id="eO3I2PJSA5BFwuN0Dlqp-1" value="" style="ellipse;whiteSpace=wrap;html=1;fillColor=#fff2cc;strokeColor=#d6b656;" vertex="1" parent="1">
          <mxGeometry x="550" y="502" width="310" height="260" as="geometry" />
        </mxCell>
        <mxCell id="6a7d8f32e03d9370-61" value="&lt;font style=&quot;font-size: 21px;&quot;&gt;&lt;b&gt;Nosso Atacarejo&lt;/b&gt;&lt;/font&gt;" style="whiteSpace=wrap;html=1;fillColor=#FFFF66;fontSize=14;strokeColor=#d6b656;verticalAlign=top;gradientColor=#007FFF;" parent="1" vertex="1">
          <mxGeometry x="106.63999999999999" y="884" width="770" height="538" as="geometry" />
        </mxCell>
        <mxCell id="6a7d8f32e03d9370-52" style="edgeStyle=none;rounded=0;html=1;startSize=10;endSize=10;jettySize=auto;orthogonalLoop=1;fontSize=14;endArrow=none;endFill=0;strokeWidth=2;entryX=0.391;entryY=0.056;entryDx=0;entryDy=0;entryPerimeter=0;" parent="1" source="6a7d8f32e03d9370-13" target="eO3I2PJSA5BFwuN0Dlqp-6" edge="1">
          <mxGeometry relative="1" as="geometry" />
        </mxCell>
        <mxCell id="eO3I2PJSA5BFwuN0Dlqp-28" value="VPN IP" style="edgeLabel;html=1;align=center;verticalAlign=middle;resizable=0;points=[];" vertex="1" connectable="0" parent="6a7d8f32e03d9370-52">
          <mxGeometry x="0.1126" y="1" relative="1" as="geometry">
            <mxPoint as="offset" />
          </mxGeometry>
        </mxCell>
        <mxCell id="6a7d8f32e03d9370-56" style="edgeStyle=none;rounded=0;html=1;startSize=10;endSize=10;jettySize=auto;orthogonalLoop=1;fontSize=14;endArrow=none;endFill=0;strokeWidth=2;entryX=0;entryY=0.25;entryDx=0;entryDy=0;" parent="1" source="6a7d8f32e03d9370-13" target="6a7d8f32e03d9370-60" edge="1">
          <mxGeometry relative="1" as="geometry" />
        </mxCell>
        <mxCell id="eO3I2PJSA5BFwuN0Dlqp-20" value="&lt;span style=&quot;font-family: lato; font-size: 12.8px; text-align: start; text-wrap-mode: wrap;&quot;&gt;10.214.0.0&lt;/span&gt;" style="edgeLabel;html=1;align=center;verticalAlign=middle;resizable=0;points=[];" vertex="1" connectable="0" parent="6a7d8f32e03d9370-56">
          <mxGeometry x="-0.3782" relative="1" as="geometry">
            <mxPoint as="offset" />
          </mxGeometry>
        </mxCell>
        <mxCell id="6a7d8f32e03d9370-13" value="&lt;font style=&quot;font-size: 16px;&quot;&gt;&lt;b&gt;Router/Firewall Dataenv&lt;/b&gt;&lt;/font&gt;" style="verticalLabelPosition=bottom;aspect=fixed;html=1;verticalAlign=top;strokeColor=none;shape=mxgraph.citrix.router;fillColor=#66B2FF;gradientColor=#0066CC;fontSize=14;" parent="1" vertex="1">
          <mxGeometry x="165" y="484.9999999999999" width="85" height="56.41" as="geometry" />
        </mxCell>
        <mxCell id="6a7d8f32e03d9370-25" value="Servidor Zabbix:&lt;br&gt;http://10.4.41.1:8080/" style="verticalLabelPosition=bottom;aspect=fixed;html=1;verticalAlign=top;strokeColor=none;shape=mxgraph.citrix.proxy_server;fillColor=#66B2FF;gradientColor=#0066CC;fontSize=14;" parent="1" vertex="1">
          <mxGeometry x="746.55" y="530.5" width="36.55" height="43" as="geometry" />
        </mxCell>
        <mxCell id="6a7d8f32e03d9370-55" style="edgeStyle=none;rounded=0;html=1;startSize=10;endSize=10;jettySize=auto;orthogonalLoop=1;fontSize=14;endArrow=none;endFill=0;strokeWidth=2;entryX=0.048;entryY=0.279;entryDx=0;entryDy=0;entryPerimeter=0;" parent="1" source="6a7d8f32e03d9370-26" target="eO3I2PJSA5BFwuN0Dlqp-8" edge="1">
          <mxGeometry relative="1" as="geometry">
            <mxPoint x="536.64" y="1292" as="targetPoint" />
          </mxGeometry>
        </mxCell>
        <mxCell id="6a7d8f32e03d9370-26" value="Swtich Core&lt;br&gt;IP:&lt;br&gt;Marca:&lt;br&gt;VersÃ£o:" style="verticalLabelPosition=bottom;aspect=fixed;html=1;verticalAlign=top;strokeColor=none;shape=mxgraph.citrix.switch;fillColor=#66B2FF;gradientColor=#0066CC;fontSize=14;" parent="1" vertex="1">
          <mxGeometry x="366.64" y="1162" width="76.48" height="34.5" as="geometry" />
        </mxCell>
        <mxCell id="eO3I2PJSA5BFwuN0Dlqp-2" value="Container Grafana:&lt;br&gt;http://10.4.41.1:3000/" style="verticalLabelPosition=bottom;aspect=fixed;html=1;verticalAlign=top;strokeColor=none;shape=mxgraph.citrix.proxy_server;fillColor=#66B2FF;gradientColor=#0066CC;fontSize=14;" vertex="1" parent="1">
          <mxGeometry x="610" y="562" width="45.05" height="53" as="geometry" />
        </mxCell>
        <mxCell id="eO3I2PJSA5BFwuN0Dlqp-4" value="&lt;font style=&quot;font-size: 19px; color: rgb(255, 255, 0);&quot;&gt;Servidor:Ubuntu 24.04.2 LTS Docker &lt;br&gt;IP: 10.4.41.1&lt;/font&gt;" style="text;html=1;align=center;verticalAlign=middle;whiteSpace=wrap;rounded=0;" vertex="1" parent="1">
          <mxGeometry x="560" y="422" width="250" height="66" as="geometry" />
        </mxCell>
        <mxCell id="eO3I2PJSA5BFwuN0Dlqp-6" value="Firewall:&lt;br&gt;Fortgate&lt;br&gt;&lt;br&gt;RedesLan:&lt;br&gt;VLANs:" style="verticalLabelPosition=bottom;aspect=fixed;html=1;verticalAlign=top;strokeColor=none;shape=mxgraph.citrix.firewall;fillColor=#66B2FF;gradientColor=#0066CC;fontSize=14;" vertex="1" parent="1">
          <mxGeometry x="196.64" y="1094.75" width="75" height="93" as="geometry" />
        </mxCell>
        <mxCell id="eO3I2PJSA5BFwuN0Dlqp-7" style="edgeStyle=none;rounded=0;html=1;startSize=10;endSize=10;jettySize=auto;orthogonalLoop=1;fontSize=14;endArrow=none;endFill=0;strokeWidth=2;entryX=-0.014;entryY=0.244;entryDx=0;entryDy=0;entryPerimeter=0;exitX=1.031;exitY=1.003;exitDx=0;exitDy=0;exitPerimeter=0;" edge="1" parent="1" source="eO3I2PJSA5BFwuN0Dlqp-6" target="6a7d8f32e03d9370-26">
          <mxGeometry relative="1" as="geometry">
            <mxPoint x="367.14" y="1335" as="sourcePoint" />
            <mxPoint x="478.14" y="1307" as="targetPoint" />
          </mxGeometry>
        </mxCell>
        <mxCell id="eO3I2PJSA5BFwuN0Dlqp-8" value="Swtich 1&lt;br&gt;IP:" style="verticalLabelPosition=bottom;aspect=fixed;html=1;verticalAlign=top;strokeColor=none;shape=mxgraph.citrix.switch;fillColor=#66B2FF;gradientColor=#0066CC;fontSize=14;" vertex="1" parent="1">
          <mxGeometry x="536.64" y="1256.75" width="69.83" height="31.5" as="geometry" />
        </mxCell>
        <mxCell id="eO3I2PJSA5BFwuN0Dlqp-9" value="Swtich 1&lt;br&gt;IP:" style="verticalLabelPosition=bottom;aspect=fixed;html=1;verticalAlign=top;strokeColor=none;shape=mxgraph.citrix.switch;fillColor=#66B2FF;gradientColor=#0066CC;fontSize=14;" vertex="1" parent="1">
          <mxGeometry x="536.64" y="1122" width="66.5" height="30" as="geometry" />
        </mxCell>
        <mxCell id="eO3I2PJSA5BFwuN0Dlqp-10" style="edgeStyle=none;rounded=0;html=1;startSize=10;endSize=10;jettySize=auto;orthogonalLoop=1;fontSize=14;endArrow=none;endFill=0;strokeWidth=2;entryX=0.064;entryY=0.279;entryDx=0;entryDy=0;entryPerimeter=0;exitX=0.98;exitY=0.451;exitDx=0;exitDy=0;exitPerimeter=0;" edge="1" parent="1" source="6a7d8f32e03d9370-26" target="eO3I2PJSA5BFwuN0Dlqp-9">
          <mxGeometry relative="1" as="geometry">
            <mxPoint x="488.64" y="1203" as="sourcePoint" />
            <mxPoint x="559.64" y="1259" as="targetPoint" />
          </mxGeometry>
        </mxCell>
        <mxCell id="eO3I2PJSA5BFwuN0Dlqp-12" value="PDVs&lt;br&gt;&lt;br&gt;IPs:" style="verticalLabelPosition=bottom;aspect=fixed;html=1;verticalAlign=top;strokeColor=none;shape=mxgraph.citrix.desktop;fillColor=#66B2FF;gradientColor=#0066CC;fontSize=14;" vertex="1" parent="1">
          <mxGeometry x="696.64" y="1067.25" width="49.73" height="54.75" as="geometry" />
        </mxCell>
        <mxCell id="eO3I2PJSA5BFwuN0Dlqp-13" style="edgeStyle=none;rounded=0;html=1;startSize=10;endSize=10;jettySize=auto;orthogonalLoop=1;fontSize=14;endArrow=none;endFill=0;strokeWidth=2;exitX=0.995;exitY=0.382;exitDx=0;exitDy=0;exitPerimeter=0;entryX=-0.021;entryY=0.626;entryDx=0;entryDy=0;entryPerimeter=0;" edge="1" parent="1" source="eO3I2PJSA5BFwuN0Dlqp-9" target="eO3I2PJSA5BFwuN0Dlqp-12">
          <mxGeometry relative="1" as="geometry">
            <mxPoint x="610.64" y="1164.25" as="sourcePoint" />
            <mxPoint x="796.6399999999999" y="1161.25" as="targetPoint" />
          </mxGeometry>
        </mxCell>
        <mxCell id="eO3I2PJSA5BFwuN0Dlqp-14" value="&lt;font style=&quot;font-size: 16px;&quot;&gt;&lt;b&gt;WAN 1&lt;br&gt;IP:&lt;/b&gt;&lt;/font&gt;" style="verticalLabelPosition=bottom;sketch=0;aspect=fixed;html=1;verticalAlign=top;strokeColor=none;align=center;outlineConnect=0;shape=mxgraph.citrix.cloud;" vertex="1" parent="1">
          <mxGeometry x="121.63999999999999" y="936" width="95" height="62" as="geometry" />
        </mxCell>
        <mxCell id="eO3I2PJSA5BFwuN0Dlqp-15" style="edgeStyle=none;rounded=0;html=1;startSize=10;endSize=10;jettySize=auto;orthogonalLoop=1;fontSize=14;endArrow=none;endFill=0;strokeWidth=2;exitX=0.116;exitY=0.033;exitDx=0;exitDy=0;exitPerimeter=0;" edge="1" parent="1" source="eO3I2PJSA5BFwuN0Dlqp-6" target="eO3I2PJSA5BFwuN0Dlqp-14">
          <mxGeometry relative="1" as="geometry">
            <mxPoint x="343.64" y="1204" as="sourcePoint" />
            <mxPoint x="390.64" y="1232" as="targetPoint" />
          </mxGeometry>
        </mxCell>
        <mxCell id="eO3I2PJSA5BFwuN0Dlqp-18" value="&lt;font style=&quot;font-size: 16px;&quot;&gt;&lt;b&gt;WAN 2&lt;br&gt;IP:&lt;/b&gt;&lt;/font&gt;" style="verticalLabelPosition=bottom;sketch=0;aspect=fixed;html=1;verticalAlign=top;strokeColor=none;align=center;outlineConnect=0;shape=mxgraph.citrix.cloud;" vertex="1" parent="1">
          <mxGeometry x="271.64" y="942" width="95" height="62" as="geometry" />
        </mxCell>
        <mxCell id="eO3I2PJSA5BFwuN0Dlqp-19" style="edgeStyle=none;rounded=0;html=1;startSize=10;endSize=10;jettySize=auto;orthogonalLoop=1;fontSize=14;endArrow=none;endFill=0;strokeWidth=2;exitX=0.528;exitY=0.104;exitDx=0;exitDy=0;exitPerimeter=0;" edge="1" parent="1" target="eO3I2PJSA5BFwuN0Dlqp-18" source="eO3I2PJSA5BFwuN0Dlqp-6">
          <mxGeometry relative="1" as="geometry">
            <mxPoint x="380.64" y="1104" as="sourcePoint" />
            <mxPoint x="505.64" y="1232" as="targetPoint" />
          </mxGeometry>
        </mxCell>
        <mxCell id="eO3I2PJSA5BFwuN0Dlqp-23" value="&lt;h2&gt;&lt;font style=&quot;font-size: 31px;&quot;&gt;Arquitetura de Redes&lt;/font&gt;&lt;/h2&gt;" style="text;html=1;align=center;verticalAlign=middle;resizable=0;points=[];autosize=1;strokeColor=none;fillColor=none;" vertex="1" parent="1">
          <mxGeometry x="450" y="32" width="340" height="80" as="geometry" />
        </mxCell>
        <mxCell id="eO3I2PJSA5BFwuN0Dlqp-24" value="Impressoras&lt;br&gt;IPs:" style="verticalLabelPosition=bottom;sketch=0;aspect=fixed;html=1;verticalAlign=top;strokeColor=none;align=center;outlineConnect=0;shape=mxgraph.citrix.printer;" vertex="1" parent="1">
          <mxGeometry x="696.64" y="1302.5" width="60" height="60" as="geometry" />
        </mxCell>
        <mxCell id="eO3I2PJSA5BFwuN0Dlqp-25" value="Desktops&lt;br&gt;IPs:" style="verticalLabelPosition=bottom;sketch=0;aspect=fixed;html=1;verticalAlign=top;strokeColor=none;align=center;outlineConnect=0;shape=mxgraph.citrix.desktop;" vertex="1" parent="1">
          <mxGeometry x="766.6399999999999" y="1242.5" width="54.49" height="60" as="geometry" />
        </mxCell>
        <mxCell id="eO3I2PJSA5BFwuN0Dlqp-26" style="edgeStyle=none;rounded=0;html=1;startSize=10;endSize=10;jettySize=auto;orthogonalLoop=1;fontSize=14;endArrow=none;endFill=0;strokeWidth=2;exitX=1.055;exitY=0.491;exitDx=0;exitDy=0;exitPerimeter=0;" edge="1" parent="1" source="eO3I2PJSA5BFwuN0Dlqp-8" target="eO3I2PJSA5BFwuN0Dlqp-25">
          <mxGeometry relative="1" as="geometry">
            <mxPoint x="622.64" y="1179" as="sourcePoint" />
            <mxPoint x="735.64" y="1177" as="targetPoint" />
          </mxGeometry>
        </mxCell>
        <mxCell id="eO3I2PJSA5BFwuN0Dlqp-27" style="edgeStyle=none;rounded=0;html=1;startSize=10;endSize=10;jettySize=auto;orthogonalLoop=1;fontSize=14;endArrow=none;endFill=0;strokeWidth=2;entryX=0.835;entryY=0.979;entryDx=0;entryDy=0;entryPerimeter=0;" edge="1" parent="1" source="eO3I2PJSA5BFwuN0Dlqp-24" target="eO3I2PJSA5BFwuN0Dlqp-8">
          <mxGeometry relative="1" as="geometry">
            <mxPoint x="632.64" y="1189" as="sourcePoint" />
            <mxPoint x="745.6399999999999" y="1187" as="targetPoint" />
          </mxGeometry>
        </mxCell>
        <mxCell id="eO3I2PJSA5BFwuN0Dlqp-29" value="" style="verticalLabelPosition=bottom;sketch=0;aspect=fixed;html=1;verticalAlign=top;strokeColor=none;align=center;outlineConnect=0;shape=mxgraph.citrix.cloud;" vertex="1" parent="1">
          <mxGeometry x="64" y="308" width="95" height="62" as="geometry" />
        </mxCell>
        <mxCell id="eO3I2PJSA5BFwuN0Dlqp-30" style="edgeStyle=none;rounded=0;html=1;startSize=10;endSize=10;jettySize=auto;orthogonalLoop=1;fontSize=14;endArrow=none;endFill=0;strokeWidth=2;exitX=0.062;exitY=0.073;exitDx=0;exitDy=0;exitPerimeter=0;" edge="1" parent="1" source="6a7d8f32e03d9370-13" target="eO3I2PJSA5BFwuN0Dlqp-29">
          <mxGeometry relative="1" as="geometry">
            <mxPoint x="290" y="319.13" as="sourcePoint" />
            <mxPoint x="372" y="227.13" as="targetPoint" />
          </mxGeometry>
        </mxCell>
        <mxCell id="eO3I2PJSA5BFwuN0Dlqp-31" style="edgeStyle=none;rounded=0;html=1;startSize=10;endSize=10;jettySize=auto;orthogonalLoop=1;fontSize=14;endArrow=none;endFill=0;strokeWidth=2;entryX=0.5;entryY=1;entryDx=0;entryDy=0;exitX=0.422;exitY=0.02;exitDx=0;exitDy=0;exitPerimeter=0;" edge="1" parent="1" source="eO3I2PJSA5BFwuN0Dlqp-1" target="eO3I2PJSA5BFwuN0Dlqp-4">
          <mxGeometry relative="1" as="geometry">
            <mxPoint x="626.78" y="617" as="sourcePoint" />
            <mxPoint x="606.78" y="728" as="targetPoint" />
          </mxGeometry>
        </mxCell>
        <mxCell id="eO3I2PJSA5BFwuN0Dlqp-33" value="Servidor Portainer:&lt;br&gt;http://10.4.41.1:9000/" style="verticalLabelPosition=bottom;aspect=fixed;html=1;verticalAlign=top;strokeColor=none;shape=mxgraph.citrix.proxy_server;fillColor=#66B2FF;gradientColor=#0066CC;fontSize=14;" vertex="1" parent="1">
          <mxGeometry x="710" y="652" width="36.55" height="43" as="geometry" />
        </mxCell>
        <mxCell id="eO3I2PJSA5BFwuN0Dlqp-35" value="" style="ellipse;whiteSpace=wrap;html=1;fillColor=#fff2cc;strokeColor=#d6b656;" vertex="1" parent="1">
          <mxGeometry x="910" y="468" width="280" height="200" as="geometry" />
        </mxCell>
        <mxCell id="eO3I2PJSA5BFwuN0Dlqp-37" value="" style="verticalLabelPosition=bottom;aspect=fixed;html=1;verticalAlign=top;strokeColor=none;shape=mxgraph.citrix.proxy_server;fillColor=#66B2FF;gradientColor=#0066CC;fontSize=14;" vertex="1" parent="1">
          <mxGeometry x="1030" y="513" width="76.5" height="90" as="geometry" />
        </mxCell>
        <mxCell id="eO3I2PJSA5BFwuN0Dlqp-38" value="&lt;font color=&quot;#ffff00&quot;&gt;&lt;span style=&quot;font-size: 19px;&quot;&gt;Futuro servidor...&lt;/span&gt;&lt;/font&gt;" style="text;html=1;align=center;verticalAlign=middle;whiteSpace=wrap;rounded=0;" vertex="1" parent="1">
          <mxGeometry x="933.25" y="398" width="246.75" height="46" as="geometry" />
        </mxCell>
        <mxCell id="eO3I2PJSA5BFwuN0Dlqp-39" style="edgeStyle=none;rounded=0;html=1;startSize=10;endSize=10;jettySize=auto;orthogonalLoop=1;fontSize=14;endArrow=none;endFill=0;strokeWidth=2;entryX=0.5;entryY=1;entryDx=0;entryDy=0;exitX=0.563;exitY=0.011;exitDx=0;exitDy=0;exitPerimeter=0;" edge="1" parent="1" source="eO3I2PJSA5BFwuN0Dlqp-35" target="eO3I2PJSA5BFwuN0Dlqp-38">
          <mxGeometry relative="1" as="geometry">
            <mxPoint x="956.78" y="583" as="sourcePoint" />
            <mxPoint x="936.78" y="694" as="targetPoint" />
          </mxGeometry>
        </mxCell>
      </root>
    </mxGraphModel>
  </diagram>
</mxfile>
